# xmcd
#
# Track frame offsets: 
#        150
#        5797
#        27782
#        47985
#        65567
#        88620
#        111522
#        131125
#        154200
#        172530
#        188570
#        208632
#        229597
#        248507
#        275207
#
# Disc length: 3939 seconds
#
# Revision: 9
# Processed by: cddbd v1.5.2PL0 Copyright (c) Steve Scherf et al.
# Submitted via: ExactAudioCopyFreeDBPlugin 1.0
#
DISCID=cd0f610f
DTITLE=Céline Dion - 1992 - Céline Dion
DYEAR=1992
DGENRE=Pop
TTITLE0=Introduction
TTITLE1=Love Can Move Mountains
TTITLE2=Show Some Emotion
TTITLE3=If You Asked Me To
TTITLE4=If You Could See Me Now
TTITLE5=Halfway to Heaven
TTITLE6=Did You Give Enough Love
TTITLE7=If I Were You
TTITLE8=Beauty and the Beast [& Peabo Bryson ]
TTITLE9=I Love You, Goodbye
TTITLE10=Little Bit of Love
TTITLE11=Water From the Moon
TTITLE12=With This Tear
TTITLE13=Nothing Broken but My Heart
TTITLE14=Where Does My Heart Beat Now
EXTD=
EXTT0=
EXTT1=
EXTT2=
EXTT3=
EXTT4=
EXTT5=
EXTT6=
EXTT7=
EXTT8=
EXTT9=
EXTT10=
EXTT11=
EXTT12=
EXTT13=
EXTT14=
PLAYORDER=
